<?xml version="1.0" standalone="no"?><!DOCTYPE svg PUBLIC "-//W3C//DTD SVG 1.1//EN" "http://www.w3.org/Graphics/SVG/1.1/DTD/svg11.dtd"><svg t="1667004090967" class="icon" viewBox="0 0 1024 1024" version="1.1" xmlns="http://www.w3.org/2000/svg" p-id="2672" xmlns:xlink="http://www.w3.org/1999/xlink" width="200" height="200"><path d="M804.394667 738.005333c44.16 0 83.157333-32 94.549333-76.032l0.170667-2.133333 74.154666-346.538667a33.493333 33.493333 0 0 0-6.272-26.709333 32.469333 32.469333 0 0 0-24.917333-12.202667H373.888a31.445333 31.445333 0 0 0-31.872 31.744c0 17.877333 13.952 31.786667 31.872 31.786667h529.450667l-1.664 7.765333-64.341334 300.416c-4.608 16.554667-17.792 28.373333-32.938666 28.373334H340.821333c-15.189333 0-28.373333-11.818667-33.024-28.586667L196.138667 172.629333a32.682667 32.682667 0 0 0-31.274667-25.002666H39.424a31.445333 31.445333 0 0 0-31.872 31.786666c0 17.834667 13.952 31.786667 31.829333 31.786667h94.890667l6.229333 4.906667 104.746667 444.288c11.52 46.037333 50.304 77.653333 94.805333 77.653333h464.341334z" p-id="2673"></path><path d="M323.968 873.472c0 38.4 31.146667 69.461333 69.632 69.461333a69.546667 69.546667 0 0 0 69.589333-69.461333c0-38.4-31.146667-69.504-69.589333-69.504a69.546667 69.546667 0 0 0-69.632 69.504zM698.794667 873.472c0 38.4 31.146667 69.461333 69.632 69.461333a69.546667 69.546667 0 0 0 69.632-69.461333c0-38.4-31.146667-69.504-69.632-69.504a69.546667 69.546667 0 0 0-69.632 69.504z" p-id="2674"></path></svg>